%TF.GenerationSoftware,Altium Limited,Altium Designer,26.3.0 (6)*%
G04 Layer_Color=8388736*
%FSLAX45Y45*%
%MOMM*%
%TF.SameCoordinates,1C4C9442-4B4C-45A6-8EFE-6F47CC724B92*%
%TF.FilePolarity,Negative*%
%TF.FileFunction,Soldermask,Top*%
%TF.Part,Single*%
G01*
G75*
%TA.AperFunction,SMDPad,CuDef*%
%ADD10R,1.40000X0.95000*%
%ADD11R,1.70000X0.60000*%
%ADD12R,1.00000X0.66000*%
%ADD13R,2.70000X1.00000*%
%TA.AperFunction,ViaPad*%
%ADD19C,0.88900*%
D10*
X15951199Y3546900D02*
D03*
Y3361900D02*
D03*
X15205200Y3546900D02*
D03*
Y3361900D02*
D03*
D11*
X16249100Y3516900D02*
D03*
X14907300Y3391900D02*
D03*
Y3516900D02*
D03*
X16249100Y3391900D02*
D03*
D12*
X15465601Y3454400D02*
D03*
Y3549400D02*
D03*
Y3359400D02*
D03*
X15725600D02*
D03*
Y3549400D02*
D03*
D13*
X16569099Y3701900D02*
D03*
Y3206900D02*
D03*
X14587300D02*
D03*
Y3701900D02*
D03*
D19*
X15341600Y3454400D02*
D03*
X15062199Y3391900D02*
D03*
X16422099Y3516900D02*
D03*
X15951199Y3225800D02*
D03*
X15210712D02*
D03*
%TF.MD5,4f75282e694430492540c35a984fd216*%
M02*
